<?xml version="1.0" encoding="UTF-8" standalone="no"?>
<!DOCTYPE svg PUBLIC "-//W3C//DTD SVG 1.1//EN"
 "http://www.w3.org/Graphics/SVG/1.1/DTD/svg11.dtd">
<!-- Generated by graphviz version 2.44.1 (20200629.0846)
 -->
<!-- Title: dependencies Pages: 1 -->
<svg width="686pt" height="211pt"
 viewBox="0.00 0.00 686.00 211.00" xmlns="http://www.w3.org/2000/svg" xmlns:xlink="http://www.w3.org/1999/xlink">
<g id="graph0" class="graph" transform="scale(1 1) rotate(0) translate(4 207)">
<title>dependencies</title>
<polygon fill="white" stroke="transparent" points="-4,4 -4,-207 682,-207 682,4 -4,4"/>
<text text-anchor="start" x="318.01" y="-42.4" font-family="sans-serif" font-weight="bold" font-size="14.00">Legend</text>
<polygon fill="#ffffb3" stroke="transparent" points="105,-10 105,-30 125,-30 125,-10 105,-10"/>
<text text-anchor="start" x="128.63" y="-15.4" font-family="sans-serif" font-size="14.00"> &#160;Declarations</text>
<polygon fill="#8dd3c7" stroke="transparent" points="218,-10 218,-30 238,-30 238,-10 218,-10"/>
<text text-anchor="start" x="241.73" y="-15.4" font-family="sans-serif" font-size="14.00"> &#160;Module</text>
<polygon fill="#80b1d3" stroke="transparent" points="304,-10 304,-30 324,-30 324,-10 304,-10"/>
<text text-anchor="start" x="327.78" y="-15.4" font-family="sans-serif" font-size="14.00"> &#160;Bootstrap</text>
<polygon fill="#fdb462" stroke="transparent" points="401,-10 401,-30 421,-30 421,-10 401,-10"/>
<text text-anchor="start" x="424.67" y="-15.4" font-family="sans-serif" font-size="14.00"> &#160;Providers</text>
<polygon fill="#fb8072" stroke="transparent" points="497,-10 497,-30 517,-30 517,-10 497,-10"/>
<text text-anchor="start" x="520.73" y="-15.4" font-family="sans-serif" font-size="14.00"> &#160;Exports</text>
<g id="clust1" class="cluster">
<title>cluster_AdminLayoutModule</title>
<polygon fill="none" stroke="black" stroke-dasharray="1,5" points="8,-70 8,-195 670,-195 670,-70 8,-70"/>
</g>
<g id="clust2" class="cluster">
<title>cluster_AdminLayoutModule_declarations</title>
<polygon fill="none" stroke="black" points="16,-78 16,-130 662,-130 662,-78 16,-78"/>
</g>
<!-- ApiInformationComponent -->
<g id="node1" class="node">
<title>ApiInformationComponent</title>
<polygon fill="#ffffb3" stroke="black" points="653.7,-122 484.3,-122 484.3,-86 653.7,-86 653.7,-122"/>
<text text-anchor="middle" x="569" y="-99.8" font-family="Times,serif" font-size="14.00">ApiInformationComponent</text>
</g>
<!-- AdminLayoutModule -->
<g id="node5" class="node">
<title>AdminLayoutModule</title>
<polygon fill="#8dd3c7" stroke="black" points="390.1,-187 387.1,-191 366.1,-191 363.1,-187 251.9,-187 251.9,-151 390.1,-151 390.1,-187"/>
<text text-anchor="middle" x="321" y="-164.8" font-family="Times,serif" font-size="14.00">AdminLayoutModule</text>
</g>
<!-- ApiInformationComponent&#45;&gt;AdminLayoutModule -->
<g id="edge1" class="edge">
<title>ApiInformationComponent&#45;&gt;AdminLayoutModule</title>
<path fill="none" stroke="black" d="M569,-122.11C569,-141.34 569,-169 569,-169 569,-169 400.08,-169 400.08,-169"/>
<polygon fill="black" stroke="black" points="400.08,-165.5 390.08,-169 400.08,-172.5 400.08,-165.5"/>
</g>
<!-- DashboardComponent -->
<g id="node2" class="node">
<title>DashboardComponent</title>
<polygon fill="#ffffb3" stroke="black" points="465.97,-122 324.03,-122 324.03,-86 465.97,-86 465.97,-122"/>
<text text-anchor="middle" x="395" y="-99.8" font-family="Times,serif" font-size="14.00">DashboardComponent</text>
</g>
<!-- DashboardComponent&#45;&gt;AdminLayoutModule -->
<g id="edge2" class="edge">
<title>DashboardComponent&#45;&gt;AdminLayoutModule</title>
<path fill="none" stroke="black" d="M357.03,-122.11C357.03,-122.11 357.03,-140.99 357.03,-140.99"/>
<polygon fill="black" stroke="black" points="353.53,-140.99 357.03,-150.99 360.53,-140.99 353.53,-140.99"/>
</g>
<!-- TablesComponent -->
<g id="node3" class="node">
<title>TablesComponent</title>
<polygon fill="#ffffb3" stroke="black" points="306.15,-122 187.85,-122 187.85,-86 306.15,-86 306.15,-122"/>
<text text-anchor="middle" x="247" y="-99.8" font-family="Times,serif" font-size="14.00">TablesComponent</text>
</g>
<!-- TablesComponent&#45;&gt;AdminLayoutModule -->
<g id="edge3" class="edge">
<title>TablesComponent&#45;&gt;AdminLayoutModule</title>
<path fill="none" stroke="black" d="M279.14,-122.11C279.14,-122.11 279.14,-140.99 279.14,-140.99"/>
<polygon fill="black" stroke="black" points="275.64,-140.99 279.14,-150.99 282.64,-140.99 275.64,-140.99"/>
</g>
<!-- UserProfileComponent -->
<g id="node4" class="node">
<title>UserProfileComponent</title>
<polygon fill="#ffffb3" stroke="black" points="169.86,-122 24.14,-122 24.14,-86 169.86,-86 169.86,-122"/>
<text text-anchor="middle" x="97" y="-99.8" font-family="Times,serif" font-size="14.00">UserProfileComponent</text>
</g>
<!-- UserProfileComponent&#45;&gt;AdminLayoutModule -->
<g id="edge4" class="edge">
<title>UserProfileComponent&#45;&gt;AdminLayoutModule</title>
<path fill="none" stroke="black" d="M97,-122.11C97,-141.34 97,-169 97,-169 97,-169 241.66,-169 241.66,-169"/>
<polygon fill="black" stroke="black" points="241.66,-172.5 251.66,-169 241.66,-165.5 241.66,-172.5"/>
</g>
</g>
</svg>
