<?xml version="1.0" encoding="UTF-8" standalone="no"?>
<!DOCTYPE svg PUBLIC "-//W3C//DTD SVG 1.1//EN"
 "http://www.w3.org/Graphics/SVG/1.1/DTD/svg11.dtd">
<!-- Generated by graphviz version 2.44.1 (20200629.0846)
 -->
<!-- Title: dependencies Pages: 1 -->
<svg width="1294pt" height="211pt"
 viewBox="0.00 0.00 1294.00 211.00" xmlns="http://www.w3.org/2000/svg" xmlns:xlink="http://www.w3.org/1999/xlink">
<g id="graph0" class="graph" transform="scale(1 1) rotate(0) translate(4 207)">
<title>dependencies</title>
<polygon fill="white" stroke="transparent" points="-4,4 -4,-207 1290,-207 1290,4 -4,4"/>
<text text-anchor="start" x="622.01" y="-42.4" font-family="sans-serif" font-weight="bold" font-size="14.00">Legend</text>
<polygon fill="#ffffb3" stroke="transparent" points="409,-10 409,-30 429,-30 429,-10 409,-10"/>
<text text-anchor="start" x="432.63" y="-15.4" font-family="sans-serif" font-size="14.00"> &#160;Declarations</text>
<polygon fill="#8dd3c7" stroke="transparent" points="522,-10 522,-30 542,-30 542,-10 522,-10"/>
<text text-anchor="start" x="545.73" y="-15.4" font-family="sans-serif" font-size="14.00"> &#160;Module</text>
<polygon fill="#80b1d3" stroke="transparent" points="608,-10 608,-30 628,-30 628,-10 608,-10"/>
<text text-anchor="start" x="631.78" y="-15.4" font-family="sans-serif" font-size="14.00"> &#160;Bootstrap</text>
<polygon fill="#fdb462" stroke="transparent" points="705,-10 705,-30 725,-30 725,-10 705,-10"/>
<text text-anchor="start" x="728.67" y="-15.4" font-family="sans-serif" font-size="14.00"> &#160;Providers</text>
<polygon fill="#fb8072" stroke="transparent" points="801,-10 801,-30 821,-30 821,-10 801,-10"/>
<text text-anchor="start" x="824.73" y="-15.4" font-family="sans-serif" font-size="14.00"> &#160;Exports</text>
<g id="clust1" class="cluster">
<title>cluster_LandingModule</title>
<polygon fill="none" stroke="black" stroke-dasharray="1,5" points="8,-70 8,-195 1278,-195 1278,-70 8,-70"/>
</g>
<g id="clust10" class="cluster">
<title>cluster_LandingModule_imports</title>
<polygon fill="none" stroke="black" points="1102,-78 1102,-130 1270,-130 1270,-78 1102,-78"/>
</g>
<g id="clust2" class="cluster">
<title>cluster_LandingModule_declarations</title>
<polygon fill="none" stroke="black" points="16,-78 16,-130 1094,-130 1094,-78 16,-78"/>
</g>
<!-- BestComponent -->
<g id="node1" class="node">
<title>BestComponent</title>
<polygon fill="#ffffb3" stroke="black" points="1086.22,-122 979.78,-122 979.78,-86 1086.22,-86 1086.22,-122"/>
<text text-anchor="middle" x="1033" y="-99.8" font-family="Times,serif" font-size="14.00">BestComponent</text>
</g>
<!-- LandingModule -->
<g id="node8" class="node">
<title>LandingModule</title>
<polygon fill="#8dd3c7" stroke="black" points="702.21,-187 699.21,-191 678.21,-191 675.21,-187 595.79,-187 595.79,-151 702.21,-151 702.21,-187"/>
<text text-anchor="middle" x="649" y="-164.8" font-family="Times,serif" font-size="14.00">LandingModule</text>
</g>
<!-- BestComponent&#45;&gt;LandingModule -->
<g id="edge1" class="edge">
<title>BestComponent&#45;&gt;LandingModule</title>
<path fill="none" stroke="black" d="M1033,-122.11C1033,-141.34 1033,-169 1033,-169 1033,-169 712.39,-169 712.39,-169"/>
<polygon fill="black" stroke="black" points="712.39,-165.5 702.39,-169 712.39,-172.5 712.39,-165.5"/>
</g>
<!-- ContactFormComponent -->
<g id="node2" class="node">
<title>ContactFormComponent</title>
<polygon fill="#ffffb3" stroke="black" points="961.71,-122 806.29,-122 806.29,-86 961.71,-86 961.71,-122"/>
<text text-anchor="middle" x="884" y="-99.8" font-family="Times,serif" font-size="14.00">ContactFormComponent</text>
</g>
<!-- ContactFormComponent&#45;&gt;LandingModule -->
<g id="edge2" class="edge">
<title>ContactFormComponent&#45;&gt;LandingModule</title>
<path fill="none" stroke="black" d="M884,-122.03C884,-138.4 884,-160 884,-160 884,-160 712.33,-160 712.33,-160"/>
<polygon fill="black" stroke="black" points="712.33,-156.5 702.33,-160 712.33,-163.5 712.33,-156.5"/>
</g>
<!-- HeaderComponent -->
<g id="node3" class="node">
<title>HeaderComponent</title>
<polygon fill="#ffffb3" stroke="black" points="788.74,-122 667.26,-122 667.26,-86 788.74,-86 788.74,-122"/>
<text text-anchor="middle" x="728" y="-99.8" font-family="Times,serif" font-size="14.00">HeaderComponent</text>
</g>
<!-- HeaderComponent&#45;&gt;LandingModule -->
<g id="edge3" class="edge">
<title>HeaderComponent&#45;&gt;LandingModule</title>
<path fill="none" stroke="black" d="M684.62,-122.11C684.62,-122.11 684.62,-140.99 684.62,-140.99"/>
<polygon fill="black" stroke="black" points="681.12,-140.99 684.62,-150.99 688.12,-140.99 681.12,-140.99"/>
</g>
<!-- HeaderWhiteComponent -->
<g id="node4" class="node">
<title>HeaderWhiteComponent</title>
<polygon fill="#ffffb3" stroke="black" points="648.95,-122 493.05,-122 493.05,-86 648.95,-86 648.95,-122"/>
<text text-anchor="middle" x="571" y="-99.8" font-family="Times,serif" font-size="14.00">HeaderWhiteComponent</text>
</g>
<!-- HeaderWhiteComponent&#45;&gt;LandingModule -->
<g id="edge4" class="edge">
<title>HeaderWhiteComponent&#45;&gt;LandingModule</title>
<path fill="none" stroke="black" d="M622.44,-122.11C622.44,-122.11 622.44,-140.99 622.44,-140.99"/>
<polygon fill="black" stroke="black" points="618.94,-140.99 622.44,-150.99 625.94,-140.99 618.94,-140.99"/>
</g>
<!-- IntroTenComponent -->
<g id="node5" class="node">
<title>IntroTenComponent</title>
<polygon fill="#ffffb3" stroke="black" points="475.31,-122 344.69,-122 344.69,-86 475.31,-86 475.31,-122"/>
<text text-anchor="middle" x="410" y="-99.8" font-family="Times,serif" font-size="14.00">IntroTenComponent</text>
</g>
<!-- IntroTenComponent&#45;&gt;LandingModule -->
<g id="edge5" class="edge">
<title>IntroTenComponent&#45;&gt;LandingModule</title>
<path fill="none" stroke="black" d="M410,-122.03C410,-138.4 410,-160 410,-160 410,-160 585.66,-160 585.66,-160"/>
<polygon fill="black" stroke="black" points="585.66,-163.5 595.66,-160 585.66,-156.5 585.66,-163.5"/>
</g>
<!-- LeftImageComponent -->
<g id="node6" class="node">
<title>LeftImageComponent</title>
<polygon fill="#ffffb3" stroke="black" points="326.63,-122 187.37,-122 187.37,-86 326.63,-86 326.63,-122"/>
<text text-anchor="middle" x="257" y="-99.8" font-family="Times,serif" font-size="14.00">LeftImageComponent</text>
</g>
<!-- LeftImageComponent&#45;&gt;LandingModule -->
<g id="edge6" class="edge">
<title>LeftImageComponent&#45;&gt;LandingModule</title>
<path fill="none" stroke="black" d="M257,-122.11C257,-141.34 257,-169 257,-169 257,-169 585.73,-169 585.73,-169"/>
<polygon fill="black" stroke="black" points="585.73,-172.5 595.73,-169 585.73,-165.5 585.73,-172.5"/>
</g>
<!-- PricingOneComponent -->
<g id="node7" class="node">
<title>PricingOneComponent</title>
<polygon fill="#ffffb3" stroke="black" points="169.59,-122 24.41,-122 24.41,-86 169.59,-86 169.59,-122"/>
<text text-anchor="middle" x="97" y="-99.8" font-family="Times,serif" font-size="14.00">PricingOneComponent</text>
</g>
<!-- PricingOneComponent&#45;&gt;LandingModule -->
<g id="edge7" class="edge">
<title>PricingOneComponent&#45;&gt;LandingModule</title>
<path fill="none" stroke="black" d="M97,-122.29C97,-144.21 97,-178 97,-178 97,-178 585.82,-178 585.82,-178"/>
<polygon fill="black" stroke="black" points="585.82,-181.5 595.82,-178 585.82,-174.5 585.82,-181.5"/>
</g>
<!-- LandingRoutingModule -->
<g id="node9" class="node">
<title>LandingRoutingModule</title>
<polygon fill="#8dd3c7" stroke="black" points="1261.83,-122 1258.83,-126 1237.83,-126 1234.83,-122 1110.17,-122 1110.17,-86 1261.83,-86 1261.83,-122"/>
<text text-anchor="middle" x="1186" y="-99.8" font-family="Times,serif" font-size="14.00">LandingRoutingModule</text>
</g>
<!-- LandingRoutingModule&#45;&gt;LandingModule -->
<g id="edge8" class="edge">
<title>LandingRoutingModule&#45;&gt;LandingModule</title>
<path fill="none" stroke="black" d="M1186,-122.29C1186,-144.21 1186,-178 1186,-178 1186,-178 712.45,-178 712.45,-178"/>
<polygon fill="black" stroke="black" points="712.45,-174.5 702.45,-178 712.45,-181.5 712.45,-174.5"/>
</g>
</g>
</svg>
