<?xml version="1.0" encoding="UTF-8"?> <svg xmlns="http://www.w3.org/2000/svg" width="128" height="128" viewBox="0 0 128 128" fill="none"> <path fill-rule="evenodd" clip-rule="evenodd" d="M1.57912 11.5748C-5.72205e-07 15.2239 -4.06398e-07 19.8773 4.12777e-10 29.184L1.52227e-06 64L3.04412e-06 98.816C3.45094e-06 108.123 3.62396e-06 112.776 1.57911 116.425C3.51857 120.907 7.09295 124.481 11.5748 126.421C15.2239 128 19.8772 128 29.184 128H64H98.816C108.123 128 112.776 128 116.425 126.421C120.907 124.481 124.481 120.907 126.421 116.425C128 112.776 128 108.123 128 98.816V64V29.184C128 19.8772 128 15.2239 126.421 11.5748C124.481 7.09294 120.907 3.51856 116.425 1.57911C112.776 -6.67572e-07 108.123 -4.06398e-07 98.816 4.12852e-10L64 1.52227e-06L29.184 3.04413e-06C19.8772 3.45094e-06 15.2239 3.62396e-06 11.5748 1.57911C7.09295 3.51858 3.51857 7.09294 1.57912 11.5748ZM84.4337 55.1429C78.0461 55.1429 72.8666 49.9636 72.8666 43.5745C72.8666 37.1887 78.0461 32.0094 84.4337 32.0094C90.8214 32.0094 96.0008 37.1887 96.0008 43.5745C96.0008 49.9636 90.8214 55.1429 84.4337 55.1429ZM55.124 43.5734C55.124 49.9582 49.947 55.1353 43.5608 55.1353C37.1778 55.1353 32.0008 49.9582 32.0008 43.5734C32.0008 37.1886 37.1778 32.0115 43.5608 32.0115C49.947 32.0115 55.124 37.1886 55.124 43.5734ZM84.4348 72.9023C78.0457 72.9023 72.8664 78.0817 72.8664 84.4694C72.8664 90.857 78.0457 96.0365 84.4348 96.0365C90.8207 96.0365 96 90.857 96 84.4694C96 78.0817 90.8207 72.9023 84.4348 72.9023ZM43.5618 72.9136C49.9465 72.9136 55.1235 78.0905 55.1235 84.4766C55.1235 90.8596 49.9465 96.0365 43.5618 96.0365C37.1771 96.0365 32 90.8596 32 84.4766C32 78.0905 37.1771 72.9136 43.5618 72.9136Z" fill="#211F6D"></path> </svg> 