<?xml version="1.0" encoding="UTF-8"?>
<svg xmlns="http://www.w3.org/2000/svg" xmlns:xlink="http://www.w3.org/1999/xlink" width="765pt" height="600pt" viewBox="0 0 765 600" version="1.1">
<defs>
<filter id="alpha" filterUnits="objectBoundingBox" x="0%" y="0%" width="100%" height="100%">
  <feColorMatrix type="matrix" in="SourceGraphic" values="0 0 0 0 1 0 0 0 0 1 0 0 0 0 1 0 0 0 1 0"/>
</filter>
<mask id="mask0">
  <g filter="url(#alpha)">
<rect x="0" y="0" width="765" height="600" style="fill:rgb(0%,0%,0%);fill-opacity:0.180392;stroke:none;"/>
  </g>
</mask>
<clipPath id="clip1">
  <rect x="0" y="0" width="765" height="600"/>
</clipPath>
<g id="surface5" clip-path="url(#clip1)">
<path style=" stroke:none;fill-rule:nonzero;fill:rgb(63.921569%,70.588235%,100%);fill-opacity:1;" d="M 671.6875 566.847656 C 656.644531 575.046875 640.726562 581.511719 624.230469 586.128906 C 546.46875 608.113281 466.234375 601.085938 389.269531 581.03125 C 347.496094 570.140625 301.804688 555.308594 258.3125 557.59375 C 226.871094 559.230469 196.6875 571.253906 164.535156 571.105469 C 111.632812 570.894531 74.261719 543.832031 37.6875 506.339844 C 0.273438 467.96875 -4.445312 393.675781 2.933594 341.855469 C 10.898438 285.878906 37.058594 232.988281 75.9375 194.195312 C 93.355469 176.785156 113.101562 162.328125 131.753906 146.445312 C 188.074219 98.695312 237.289062 37.117188 305.515625 12.382812 C 373.738281 -12.351562 449.507812 4.597656 517.628906 30.300781 C 570.03125 50.042969 624.273438 78.34375 649.886719 130.585938 C 664.789062 160.964844 668.226562 196.335938 681.703125 227.472656 C 715.511719 305.558594 779.882812 344.226562 761.875 439.726562 C 758.542969 459.089844 752.445312 477.871094 743.765625 495.492188 C 727.710938 526.710938 701.617188 550.460938 671.6875 566.847656 Z M 671.6875 566.847656 "/>
</g>
<linearGradient id="linear0" gradientUnits="userSpaceOnUse" x1="-553.86" y1="120.14" x2="-661.67" y2="48.26" gradientTransform="matrix(-2.096005,0.000000000000000257,-0.000000000000000257,-2.098017,-682.228752,659.558163)">
<stop offset="0.01" style="stop-color:rgb(0%,0%,0%);stop-opacity:1;"/>
<stop offset="0.08" style="stop-color:rgb(0%,0%,0%);stop-opacity:0.690196;"/>
<stop offset="0.21" style="stop-color:rgb(0%,0%,0%);stop-opacity:0.321569;"/>
<stop offset="1" style="stop-color:rgb(0%,0%,0%);stop-opacity:0;"/>
</linearGradient>
<linearGradient id="linear1" gradientUnits="userSpaceOnUse" x1="244.19" y1="95.84" x2="331.64" y2="280.24" gradientTransform="matrix(2.096005,0,0,-2.098017,-40.955943,659.558163)">
<stop offset="0.01" style="stop-color:rgb(0%,0%,0%);stop-opacity:1;"/>
<stop offset="0.08" style="stop-color:rgb(0%,0%,0%);stop-opacity:0.690196;"/>
<stop offset="0.21" style="stop-color:rgb(0%,0%,0%);stop-opacity:0.321569;"/>
<stop offset="1" style="stop-color:rgb(0%,0%,0%);stop-opacity:0;"/>
</linearGradient>
<linearGradient id="linear2" gradientUnits="userSpaceOnUse" x1="-755.66" y1="-7.43" x2="-616.77" y2="-182.04" gradientTransform="matrix(-2.078169,-0.27312,0.272858,-2.080164,-968.815552,107.842618)">
<stop offset="0.01" style="stop-color:rgb(0%,0%,0%);stop-opacity:1;"/>
<stop offset="0.08" style="stop-color:rgb(0%,0%,0%);stop-opacity:0.690196;"/>
<stop offset="0.21" style="stop-color:rgb(0%,0%,0%);stop-opacity:0.321569;"/>
<stop offset="1" style="stop-color:rgb(0%,0%,0%);stop-opacity:0;"/>
</linearGradient>
<mask id="mask1">
  <g filter="url(#alpha)">
<rect x="0" y="0" width="765" height="600" style="fill:rgb(0%,0%,0%);fill-opacity:0.180392;stroke:none;"/>
  </g>
</mask>
<clipPath id="clip2">
  <rect x="0" y="0" width="765" height="600"/>
</clipPath>
<g id="surface8" clip-path="url(#clip2)">
<path style=" stroke:none;fill-rule:nonzero;fill:rgb(63.921569%,70.588235%,100%);fill-opacity:1;" d="M 328.507812 331.429688 C 328.507812 348.808594 314.429688 362.898438 297.066406 362.898438 C 279.703125 362.898438 265.625 348.808594 265.625 331.429688 C 265.625 314.046875 279.703125 299.957031 297.066406 299.957031 C 314.339844 299.863281 328.414062 313.804688 328.507812 331.09375 Z M 328.507812 331.429688 "/>
</g>
<mask id="mask2">
  <g filter="url(#alpha)">
<rect x="0" y="0" width="765" height="600" style="fill:rgb(0%,0%,0%);fill-opacity:0.341176;stroke:none;"/>
  </g>
</mask>
<clipPath id="clip3">
  <rect x="0" y="0" width="765" height="600"/>
</clipPath>
<g id="surface11" clip-path="url(#clip3)">
<path style=" stroke:none;fill-rule:nonzero;fill:rgb(63.921569%,70.588235%,100%);fill-opacity:1;" d="M 305.515625 328.742188 C 305.515625 333.886719 301.347656 338.058594 296.207031 338.058594 C 291.066406 338.058594 286.902344 333.886719 286.902344 328.742188 C 286.902344 323.597656 291.066406 319.425781 296.207031 319.425781 C 301.347656 319.425781 305.515625 323.597656 305.515625 328.742188 Z M 305.515625 328.742188 "/>
</g>
<mask id="mask3">
  <g filter="url(#alpha)">
<rect x="0" y="0" width="765" height="600" style="fill:rgb(0%,0%,0%);fill-opacity:0.341176;stroke:none;"/>
  </g>
</mask>
<clipPath id="clip4">
  <rect x="0" y="0" width="765" height="600"/>
</clipPath>
<g id="surface14" clip-path="url(#clip4)">
<path style=" stroke:none;fill-rule:nonzero;fill:rgb(63.921569%,70.588235%,100%);fill-opacity:1;" d="M 316.476562 356.183594 C 304.558594 365.546875 287.667969 365.070312 276.296875 355.050781 C 279.179688 346.21875 287.527344 340.335938 296.808594 340.597656 C 306.089844 340.859375 314.09375 347.203125 316.476562 356.183594 Z M 316.476562 356.183594 "/>
</g>
<mask id="mask4">
  <g filter="url(#alpha)">
<rect x="0" y="0" width="765" height="600" style="fill:rgb(0%,0%,0%);fill-opacity:0.180392;stroke:none;"/>
  </g>
</mask>
<clipPath id="clip5">
  <rect x="0" y="0" width="765" height="600"/>
</clipPath>
<g id="surface17" clip-path="url(#clip5)">
<path style=" stroke:none;fill-rule:nonzero;fill:rgb(63.921569%,70.588235%,100%);fill-opacity:1;" d="M 359.613281 306.859375 L 492.183594 306.859375 L 492.183594 314.980469 L 359.613281 314.980469 Z M 359.613281 306.859375 "/>
</g>
<mask id="mask5">
  <g filter="url(#alpha)">
<rect x="0" y="0" width="765" height="600" style="fill:rgb(0%,0%,0%);fill-opacity:0.180392;stroke:none;"/>
  </g>
</mask>
<clipPath id="clip6">
  <rect x="0" y="0" width="765" height="600"/>
</clipPath>
<g id="surface20" clip-path="url(#clip6)">
<path style=" stroke:none;fill-rule:nonzero;fill:rgb(63.921569%,70.588235%,100%);fill-opacity:1;" d="M 359.613281 321.273438 L 492.183594 321.273438 L 492.183594 329.394531 L 359.613281 329.394531 Z M 359.613281 321.273438 "/>
</g>
<mask id="mask6">
  <g filter="url(#alpha)">
<rect x="0" y="0" width="765" height="600" style="fill:rgb(0%,0%,0%);fill-opacity:0.180392;stroke:none;"/>
  </g>
</mask>
<clipPath id="clip7">
  <rect x="0" y="0" width="765" height="600"/>
</clipPath>
<g id="surface23" clip-path="url(#clip7)">
<path style=" stroke:none;fill-rule:nonzero;fill:rgb(63.921569%,70.588235%,100%);fill-opacity:1;" d="M 359.613281 335.6875 L 492.183594 335.6875 L 492.183594 343.804688 L 359.613281 343.804688 Z M 359.613281 335.6875 "/>
</g>
<mask id="mask7">
  <g filter="url(#alpha)">
<rect x="0" y="0" width="765" height="600" style="fill:rgb(0%,0%,0%);fill-opacity:0.180392;stroke:none;"/>
  </g>
</mask>
<clipPath id="clip8">
  <rect x="0" y="0" width="765" height="600"/>
</clipPath>
<g id="surface26" clip-path="url(#clip8)">
<path style=" stroke:none;fill-rule:nonzero;fill:rgb(63.921569%,70.588235%,100%);fill-opacity:1;" d="M 359.613281 350.101562 L 492.183594 350.101562 L 492.183594 358.21875 L 359.613281 358.21875 Z M 359.613281 350.101562 "/>
</g>
<mask id="mask8">
  <g filter="url(#alpha)">
<rect x="0" y="0" width="765" height="600" style="fill:rgb(0%,0%,0%);fill-opacity:0.180392;stroke:none;"/>
  </g>
</mask>
<clipPath id="clip9">
  <rect x="0" y="0" width="765" height="600"/>
</clipPath>
<g id="surface29" clip-path="url(#clip9)">
<path style=" stroke:none;fill-rule:nonzero;fill:rgb(63.921569%,70.588235%,100%);fill-opacity:1;" d="M 535.78125 517.082031 C 535.78125 502.285156 437.433594 490.289062 316.121094 490.289062 C 194.804688 490.289062 96.457031 502.285156 96.457031 517.082031 C 96.457031 531.878906 194.804688 543.875 316.121094 543.875 C 437.433594 543.875 535.78125 531.878906 535.78125 517.082031 Z M 535.78125 517.082031 "/>
</g>
<linearGradient id="linear3" gradientUnits="userSpaceOnUse" x1="92.81" y1="168.11" x2="147.89" y2="135.57" gradientTransform="matrix(2.096005,0,0,-2.098017,-40.955943,659.558163)">
<stop offset="0.01" style="stop-color:rgb(0%,0%,0%);stop-opacity:1;"/>
<stop offset="0.08" style="stop-color:rgb(0%,0%,0%);stop-opacity:0.690196;"/>
<stop offset="0.21" style="stop-color:rgb(0%,0%,0%);stop-opacity:0.321569;"/>
<stop offset="1" style="stop-color:rgb(0%,0%,0%);stop-opacity:0;"/>
</linearGradient>
<linearGradient id="linear4" gradientUnits="userSpaceOnUse" x1="126.13" y1="159.01" x2="120.16" y2="188.85" gradientTransform="matrix(2.096005,0,0,-2.098017,-40.955943,659.558163)">
<stop offset="0.01" style="stop-color:rgb(100%,100%,100%);stop-opacity:1;"/>
<stop offset="1" style="stop-color:rgb(100%,100%,100%);stop-opacity:0;"/>
</linearGradient>
<linearGradient id="linear5" gradientUnits="userSpaceOnUse" x1="150.51" y1="207.95" x2="221.84" y2="173.67" gradientTransform="matrix(2.096005,0,0,-2.098017,-40.955943,659.558163)">
<stop offset="0.01" style="stop-color:rgb(0%,0%,0%);stop-opacity:1;"/>
<stop offset="0.08" style="stop-color:rgb(0%,0%,0%);stop-opacity:0.690196;"/>
<stop offset="0.21" style="stop-color:rgb(0%,0%,0%);stop-opacity:0.321569;"/>
<stop offset="1" style="stop-color:rgb(0%,0%,0%);stop-opacity:0;"/>
</linearGradient>
<linearGradient id="linear6" gradientUnits="userSpaceOnUse" x1="145.93" y1="204.9" x2="211.25" y2="181.82" gradientTransform="matrix(2.096005,0,0,-2.098017,-40.955943,659.558163)">
<stop offset="0.01" style="stop-color:rgb(0%,0%,0%);stop-opacity:1;"/>
<stop offset="0.08" style="stop-color:rgb(0%,0%,0%);stop-opacity:0.690196;"/>
<stop offset="0.21" style="stop-color:rgb(0%,0%,0%);stop-opacity:0.321569;"/>
<stop offset="1" style="stop-color:rgb(0%,0%,0%);stop-opacity:0;"/>
</linearGradient>
<linearGradient id="linear7" gradientUnits="userSpaceOnUse" x1="160.73" y1="178.44" x2="160.17" y2="210.82" gradientTransform="matrix(2.096005,0,0,-2.098017,-40.955943,659.558163)">
<stop offset="0.01" style="stop-color:rgb(0%,0%,0%);stop-opacity:1;"/>
<stop offset="0.08" style="stop-color:rgb(0%,0%,0%);stop-opacity:0.690196;"/>
<stop offset="0.21" style="stop-color:rgb(0%,0%,0%);stop-opacity:0.321569;"/>
<stop offset="1" style="stop-color:rgb(0%,0%,0%);stop-opacity:0;"/>
</linearGradient>
<mask id="mask9">
  <g filter="url(#alpha)">
<rect x="0" y="0" width="765" height="600" style="fill:rgb(0%,0%,0%);fill-opacity:0.180392;stroke:none;"/>
  </g>
</mask>
<clipPath id="clip10">
  <rect x="0" y="0" width="765" height="600"/>
</clipPath>
<g id="surface32" clip-path="url(#clip10)">
<path style=" stroke:none;fill-rule:nonzero;fill:rgb(63.921569%,70.588235%,100%);fill-opacity:1;" d="M 382.4375 235.863281 C 382.34375 253.117188 368.320312 267.042969 351.082031 267 C 333.84375 266.953125 319.894531 252.949219 319.894531 235.695312 C 319.894531 218.441406 333.84375 204.441406 351.082031 204.394531 C 368.320312 204.347656 382.34375 218.273438 382.4375 235.527344 Z M 382.4375 235.863281 "/>
</g>
<mask id="mask10">
  <g filter="url(#alpha)">
<rect x="0" y="0" width="765" height="600" style="fill:rgb(0%,0%,0%);fill-opacity:0.341176;stroke:none;"/>
  </g>
</mask>
<clipPath id="clip11">
  <rect x="0" y="0" width="765" height="600"/>
</clipPath>
<g id="surface35" clip-path="url(#clip11)">
<path style=" stroke:none;fill-rule:nonzero;fill:rgb(63.921569%,70.588235%,100%);fill-opacity:1;" d="M 359.484375 233.179688 C 359.484375 238.324219 355.320312 242.492188 350.179688 242.492188 C 345.039062 242.492188 340.875 238.324219 340.875 233.179688 C 340.875 228.035156 345.039062 223.863281 350.179688 223.863281 C 355.320312 223.863281 359.484375 228.035156 359.484375 233.179688 Z M 359.484375 233.179688 "/>
</g>
<mask id="mask11">
  <g filter="url(#alpha)">
<rect x="0" y="0" width="765" height="600" style="fill:rgb(0%,0%,0%);fill-opacity:0.341176;stroke:none;"/>
  </g>
</mask>
<clipPath id="clip12">
  <rect x="0" y="0" width="765" height="600"/>
</clipPath>
<g id="surface38" clip-path="url(#clip12)">
<path style=" stroke:none;fill-rule:nonzero;fill:rgb(63.921569%,70.588235%,100%);fill-opacity:1;" d="M 370.449219 260.621094 C 358.53125 269.980469 341.640625 269.503906 330.265625 259.488281 C 333.152344 250.652344 341.5 244.773438 350.78125 245.035156 C 360.0625 245.296875 368.066406 251.636719 370.449219 260.621094 Z M 370.449219 260.621094 "/>
</g>
<mask id="mask12">
  <g filter="url(#alpha)">
<rect x="0" y="0" width="765" height="600" style="fill:rgb(0%,0%,0%);fill-opacity:0.180392;stroke:none;"/>
  </g>
</mask>
<clipPath id="clip13">
  <rect x="0" y="0" width="765" height="600"/>
</clipPath>
<g id="surface41" clip-path="url(#clip13)">
<path style=" stroke:none;fill-rule:nonzero;fill:rgb(63.921569%,70.588235%,100%);fill-opacity:1;" d="M 413.582031 211.296875 L 546.15625 211.296875 L 546.15625 219.414062 L 413.582031 219.414062 Z M 413.582031 211.296875 "/>
</g>
<mask id="mask13">
  <g filter="url(#alpha)">
<rect x="0" y="0" width="765" height="600" style="fill:rgb(0%,0%,0%);fill-opacity:0.180392;stroke:none;"/>
  </g>
</mask>
<clipPath id="clip14">
  <rect x="0" y="0" width="765" height="600"/>
</clipPath>
<g id="surface44" clip-path="url(#clip14)">
<path style=" stroke:none;fill-rule:nonzero;fill:rgb(63.921569%,70.588235%,100%);fill-opacity:1;" d="M 413.582031 225.710938 L 546.15625 225.710938 L 546.15625 233.828125 L 413.582031 233.828125 Z M 413.582031 225.710938 "/>
</g>
<mask id="mask14">
  <g filter="url(#alpha)">
<rect x="0" y="0" width="765" height="600" style="fill:rgb(0%,0%,0%);fill-opacity:0.180392;stroke:none;"/>
  </g>
</mask>
<clipPath id="clip15">
  <rect x="0" y="0" width="765" height="600"/>
</clipPath>
<g id="surface47" clip-path="url(#clip15)">
<path style=" stroke:none;fill-rule:nonzero;fill:rgb(63.921569%,70.588235%,100%);fill-opacity:1;" d="M 413.582031 240.121094 L 546.15625 240.121094 L 546.15625 248.242188 L 413.582031 248.242188 Z M 413.582031 240.121094 "/>
</g>
<mask id="mask15">
  <g filter="url(#alpha)">
<rect x="0" y="0" width="765" height="600" style="fill:rgb(0%,0%,0%);fill-opacity:0.180392;stroke:none;"/>
  </g>
</mask>
<clipPath id="clip16">
  <rect x="0" y="0" width="765" height="600"/>
</clipPath>
<g id="surface50" clip-path="url(#clip16)">
<path style=" stroke:none;fill-rule:nonzero;fill:rgb(63.921569%,70.588235%,100%);fill-opacity:1;" d="M 413.582031 254.535156 L 546.15625 254.535156 L 546.15625 262.65625 L 413.582031 262.65625 Z M 413.582031 254.535156 "/>
</g>
<mask id="mask16">
  <g filter="url(#alpha)">
<rect x="0" y="0" width="765" height="600" style="fill:rgb(0%,0%,0%);fill-opacity:0.180392;stroke:none;"/>
  </g>
</mask>
<clipPath id="clip17">
  <rect x="0" y="0" width="765" height="600"/>
</clipPath>
<g id="surface53" clip-path="url(#clip17)">
<path style=" stroke:none;fill-rule:nonzero;fill:rgb(63.921569%,70.588235%,100%);fill-opacity:1;" d="M 340.851562 143.089844 C 340.851562 160.46875 326.777344 174.558594 309.414062 174.558594 C 292.046875 174.558594 277.972656 160.46875 277.972656 143.089844 C 277.972656 125.707031 292.046875 111.617188 309.414062 111.617188 C 326.777344 111.617188 340.851562 125.707031 340.851562 143.089844 Z M 340.851562 143.089844 "/>
</g>
<mask id="mask17">
  <g filter="url(#alpha)">
<rect x="0" y="0" width="765" height="600" style="fill:rgb(0%,0%,0%);fill-opacity:0.341176;stroke:none;"/>
  </g>
</mask>
<clipPath id="clip18">
  <rect x="0" y="0" width="765" height="600"/>
</clipPath>
<g id="surface56" clip-path="url(#clip18)">
<path style=" stroke:none;fill-rule:nonzero;fill:rgb(63.921569%,70.588235%,100%);fill-opacity:1;" d="M 317.839844 140.425781 C 317.839844 145.570312 313.671875 149.738281 308.53125 149.738281 C 303.390625 149.738281 299.226562 145.570312 299.226562 140.425781 C 299.226562 135.28125 303.390625 131.109375 308.53125 131.109375 C 313.671875 131.109375 317.839844 135.28125 317.839844 140.425781 Z M 317.839844 140.425781 "/>
</g>
<mask id="mask18">
  <g filter="url(#alpha)">
<rect x="0" y="0" width="765" height="600" style="fill:rgb(0%,0%,0%);fill-opacity:0.341176;stroke:none;"/>
  </g>
</mask>
<clipPath id="clip19">
  <rect x="0" y="0" width="765" height="600"/>
</clipPath>
<g id="surface59" clip-path="url(#clip19)">
<path style=" stroke:none;fill-rule:nonzero;fill:rgb(63.921569%,70.588235%,100%);fill-opacity:1;" d="M 328.820312 167.867188 C 316.894531 177.234375 299.988281 176.75 288.621094 166.714844 C 291.496094 157.863281 299.855469 151.96875 309.152344 152.234375 C 318.445312 152.5 326.457031 158.867188 328.820312 167.867188 Z M 328.820312 167.867188 "/>
</g>
<mask id="mask19">
  <g filter="url(#alpha)">
<rect x="0" y="0" width="765" height="600" style="fill:rgb(0%,0%,0%);fill-opacity:0.180392;stroke:none;"/>
  </g>
</mask>
<clipPath id="clip20">
  <rect x="0" y="0" width="765" height="600"/>
</clipPath>
<g id="surface62" clip-path="url(#clip20)">
<path style=" stroke:none;fill-rule:nonzero;fill:rgb(63.921569%,70.588235%,100%);fill-opacity:1;" d="M 371.957031 118.542969 L 504.53125 118.542969 L 504.53125 126.660156 L 371.957031 126.660156 Z M 371.957031 118.542969 "/>
</g>
<mask id="mask20">
  <g filter="url(#alpha)">
<rect x="0" y="0" width="765" height="600" style="fill:rgb(0%,0%,0%);fill-opacity:0.180392;stroke:none;"/>
  </g>
</mask>
<clipPath id="clip21">
  <rect x="0" y="0" width="765" height="600"/>
</clipPath>
<g id="surface65" clip-path="url(#clip21)">
<path style=" stroke:none;fill-rule:nonzero;fill:rgb(63.921569%,70.588235%,100%);fill-opacity:1;" d="M 371.957031 132.957031 L 504.53125 132.957031 L 504.53125 141.074219 L 371.957031 141.074219 Z M 371.957031 132.957031 "/>
</g>
<mask id="mask21">
  <g filter="url(#alpha)">
<rect x="0" y="0" width="765" height="600" style="fill:rgb(0%,0%,0%);fill-opacity:0.180392;stroke:none;"/>
  </g>
</mask>
<clipPath id="clip22">
  <rect x="0" y="0" width="765" height="600"/>
</clipPath>
<g id="surface68" clip-path="url(#clip22)">
<path style=" stroke:none;fill-rule:nonzero;fill:rgb(63.921569%,70.588235%,100%);fill-opacity:1;" d="M 371.957031 147.347656 L 504.53125 147.347656 L 504.53125 155.46875 L 371.957031 155.46875 Z M 371.957031 147.347656 "/>
</g>
<mask id="mask22">
  <g filter="url(#alpha)">
<rect x="0" y="0" width="765" height="600" style="fill:rgb(0%,0%,0%);fill-opacity:0.180392;stroke:none;"/>
  </g>
</mask>
<clipPath id="clip23">
  <rect x="0" y="0" width="765" height="600"/>
</clipPath>
<g id="surface71" clip-path="url(#clip23)">
<path style=" stroke:none;fill-rule:nonzero;fill:rgb(63.921569%,70.588235%,100%);fill-opacity:1;" d="M 371.957031 161.761719 L 504.53125 161.761719 L 504.53125 169.882812 L 371.957031 169.882812 Z M 371.957031 161.761719 "/>
</g>
<linearGradient id="linear8" gradientUnits="userSpaceOnUse" x1="793.95" y1="1363.03" x2="744.57" y2="1330.11" gradientTransform="matrix(0.335361,2.077037,2.075045,-0.335683,-2963.877199,-944.270976)">
<stop offset="0.01" style="stop-color:rgb(0%,0%,0%);stop-opacity:1;"/>
<stop offset="0.08" style="stop-color:rgb(0%,0%,0%);stop-opacity:0.690196;"/>
<stop offset="0.21" style="stop-color:rgb(0%,0%,0%);stop-opacity:0.321569;"/>
<stop offset="1" style="stop-color:rgb(0%,0%,0%);stop-opacity:0;"/>
</linearGradient>
<linearGradient id="linear9" gradientUnits="userSpaceOnUse" x1="788.75" y1="1038.41" x2="791.58" y2="991.15" gradientTransform="matrix(0.586881,2.014096,2.012165,-0.587445,-2382.109979,-753.204563)">
<stop offset="0.01" style="stop-color:rgb(100%,100%,100%);stop-opacity:1;"/>
<stop offset="1" style="stop-color:rgb(100%,100%,100%);stop-opacity:0;"/>
</linearGradient>
<linearGradient id="linear10" gradientUnits="userSpaceOnUse" x1="771.92" y1="1030.49" x2="835.54" y2="950.52" gradientTransform="matrix(0.586881,2.014096,2.012165,-0.587445,-2382.109979,-753.204563)">
<stop offset="0.01" style="stop-color:rgb(0%,0%,0%);stop-opacity:1;"/>
<stop offset="0.08" style="stop-color:rgb(0%,0%,0%);stop-opacity:0.690196;"/>
<stop offset="0.21" style="stop-color:rgb(0%,0%,0%);stop-opacity:0.321569;"/>
<stop offset="1" style="stop-color:rgb(0%,0%,0%);stop-opacity:0;"/>
</linearGradient>
</defs>
<g id="surface1">
<use xlink:href="#surface5" mask="url(#mask0)"/>
<path style=" stroke:none;fill-rule:nonzero;fill:rgb(63.921569%,70.588235%,100%);fill-opacity:1;" d="M 421.464844 432.804688 L 531.714844 483.15625 C 536.59375 485.378906 542.351562 483.230469 544.585938 478.351562 L 572.773438 416.523438 C 573.316406 415.375 573.617188 414.125 573.65625 412.851562 C 573.804688 408.914062 571.574219 405.269531 567.996094 403.621094 L 457.746094 353.269531 C 455.40625 352.136719 452.710938 352 450.269531 352.882812 C 447.828125 353.769531 445.847656 355.601562 444.773438 357.96875 L 416.558594 419.839844 C 415.480469 422.183594 415.375 424.863281 416.273438 427.285156 C 417.171875 429.703125 418.992188 431.667969 421.339844 432.742188 Z M 421.464844 432.804688 "/>
<path style=" stroke:none;fill-rule:nonzero;fill:url(#linear0);" d="M 421.464844 432.804688 L 531.714844 483.15625 C 536.59375 485.378906 542.351562 483.230469 544.585938 478.351562 L 572.773438 416.523438 C 573.316406 415.375 573.617188 414.125 573.65625 412.851562 C 573.804688 408.914062 571.574219 405.269531 567.996094 403.621094 L 457.746094 353.269531 C 455.40625 352.136719 452.710938 352 450.269531 352.882812 C 447.828125 353.769531 445.847656 355.601562 444.773438 357.96875 L 416.558594 419.839844 C 415.480469 422.183594 415.375 424.863281 416.273438 427.285156 C 417.171875 429.703125 418.992188 431.667969 421.339844 432.742188 Z M 421.464844 432.804688 "/>
<path style=" stroke:none;fill-rule:nonzero;fill:rgb(63.921569%,70.588235%,100%);fill-opacity:1;" d="M 416.371094 430.496094 L 526.621094 480.847656 C 531.496094 483.074219 537.25 480.9375 539.492188 476.066406 L 567.683594 414.214844 C 568.210938 413.070312 568.511719 411.828125 568.5625 410.566406 C 568.707031 406.621094 566.464844 402.976562 562.882812 401.335938 L 452.652344 350.980469 C 447.773438 348.757812 442.015625 350.90625 439.785156 355.785156 L 411.570312 417.636719 C 409.351562 422.515625 411.5 428.269531 416.371094 430.496094 Z M 416.371094 430.496094 "/>
<path style=" stroke:none;fill-rule:nonzero;fill:rgb(63.921569%,70.588235%,100%);fill-opacity:1;" d="M 572.3125 407.523438 L 538.546875 318.734375 L 449.46875 353.375 L 563.699219 422.984375 Z M 572.3125 407.523438 "/>
<path style=" stroke:none;fill-rule:nonzero;fill:url(#linear1);" d="M 444.375 351.148438 L 478.851562 426.679688 L 572.355469 407.566406 L 538.589844 318.777344 C 538.589844 318.777344 446.890625 349.847656 444.375 351.148438 Z M 444.375 351.148438 "/>
<path style=" stroke:none;fill-rule:nonzero;fill:url(#linear2);" d="M 510.984375 420.867188 L 519.996094 477.828125 L 416.390625 430.496094 L 466.488281 399.613281 L 478.8125 426.636719 Z M 510.984375 420.867188 "/>
<path style=" stroke:none;fill-rule:nonzero;fill:rgb(100%,100%,100%);fill-opacity:1;" d="M 296.730469 101.570312 L 498.828125 101.570312 C 516.492188 101.570312 530.8125 115.902344 530.8125 133.585938 L 530.8125 152.613281 C 530.8125 170.296875 516.492188 184.628906 498.828125 184.628906 L 296.730469 184.628906 C 279.066406 184.628906 264.746094 170.296875 264.746094 152.613281 L 264.746094 133.585938 C 264.746094 115.902344 279.066406 101.570312 296.730469 101.570312 Z M 296.730469 101.570312 "/>
<path style=" stroke:none;fill-rule:nonzero;fill:rgb(100%,100%,100%);fill-opacity:1;" d="M 341.648438 194.34375 L 543.746094 194.34375 C 561.410156 194.34375 575.730469 208.679688 575.730469 226.359375 L 575.730469 245.386719 C 575.730469 263.070312 561.410156 277.40625 543.746094 277.40625 L 341.648438 277.40625 C 323.984375 277.40625 309.664062 263.070312 309.664062 245.386719 L 309.664062 226.359375 C 309.664062 208.679688 323.984375 194.34375 341.648438 194.34375 Z M 341.648438 194.34375 "/>
<path style=" stroke:none;fill-rule:nonzero;fill:rgb(100%,100%,100%);fill-opacity:1;" d="M 282.917969 289.320312 L 485.015625 289.320312 C 502.679688 289.320312 517 303.65625 517 321.335938 L 517 340.367188 C 517 358.046875 502.679688 372.382812 485.015625 372.382812 L 282.917969 372.382812 C 265.253906 372.382812 250.933594 358.046875 250.933594 340.367188 L 250.933594 321.335938 C 250.933594 303.65625 265.253906 289.320312 282.917969 289.320312 Z M 282.917969 289.320312 "/>
<use xlink:href="#surface8" mask="url(#mask1)"/>
<use xlink:href="#surface11" mask="url(#mask2)"/>
<use xlink:href="#surface14" mask="url(#mask3)"/>
<use xlink:href="#surface17" mask="url(#mask4)"/>
<use xlink:href="#surface20" mask="url(#mask5)"/>
<use xlink:href="#surface23" mask="url(#mask6)"/>
<use xlink:href="#surface26" mask="url(#mask7)"/>
<use xlink:href="#surface29" mask="url(#mask8)"/>
<path style=" stroke:none;fill-rule:nonzero;fill:rgb(63.921569%,70.588235%,100%);fill-opacity:1;" d="M 177.71875 508.5 C 175.855469 509.925781 174.21875 512.382812 175.207031 514.542969 C 176.191406 516.703125 178.851562 516.996094 181.117188 517.0625 C 189.675781 517.285156 198.234375 516.523438 206.625 514.796875 C 206.875 514.773438 207.109375 514.667969 207.292969 514.5 C 207.464844 514.289062 207.546875 514.019531 207.527344 513.746094 C 208.148438 508.523438 208.414062 503.269531 208.320312 498.011719 C 203.710938 496.710938 198.367188 498.285156 194.238281 500.402344 C 188.933594 503.023438 182.4375 504.851562 177.71875 508.5 Z M 177.71875 508.5 "/>
<path style=" stroke:none;fill-rule:nonzero;fill:rgb(63.921569%,70.588235%,100%);fill-opacity:1;" d="M 264.871094 505.332031 C 266.738281 506.78125 268.394531 509.234375 267.410156 511.375 C 266.421875 513.515625 263.742188 513.851562 261.476562 513.894531 C 252.914062 514.105469 244.351562 513.324219 235.96875 511.5625 C 235.71875 511.542969 235.484375 511.4375 235.296875 511.269531 C 235.144531 511.046875 235.074219 510.78125 235.089844 510.515625 C 234.445312 505.296875 234.179688 500.039062 234.292969 494.78125 C 238.902344 493.457031 244.246094 495.050781 248.375 497.171875 C 253.679688 499.878906 260.15625 501.703125 264.871094 505.332031 Z M 264.871094 505.332031 "/>
<path style=" stroke:none;fill-rule:nonzero;fill:rgb(27.843137%,24.705882%,27.843137%);fill-opacity:1;" d="M 195.621094 357.109375 L 195.621094 499.457031 C 195.621094 499.457031 203.542969 502.289062 208.363281 499.457031 L 223.328125 379.535156 L 233.808594 497.488281 C 233.808594 497.488281 242.195312 499.457031 248.480469 496.625 L 254.769531 356.058594 C 254.769531 356.058594 217.628906 347.6875 195.621094 357.109375 Z M 195.621094 357.109375 "/>
<path style=" stroke:none;fill-rule:nonzero;fill:rgb(63.921569%,70.588235%,100%);fill-opacity:1;" d="M 303.5625 279.816406 C 299.5625 295.910156 299.625 303.777344 293.523438 319.195312 C 291.890625 323.394531 289.332031 328.007812 284.929688 328.53125 C 281.578125 328.933594 278.496094 326.6875 275.835938 324.589844 C 268.527344 318.757812 261.195312 312.921875 253.847656 307.089844 C 253.105469 324.5 253.667969 341.941406 255.523438 359.269531 C 245.378906 364.617188 234.691406 370.09375 223.222656 369.757812 C 216.019531 369.25 208.984375 367.332031 202.515625 364.117188 C 200.945312 363.445312 199.414062 362.75 197.882812 362.015625 C 197.324219 361.828125 196.835938 361.480469 196.480469 361.011719 C 194.382812 357.738281 195.367188 349.511719 195.199219 345.632812 C 194.949219 339.714844 194.65625 333.777344 194.363281 327.839844 C 194.238281 325.742188 194.132812 323.792969 193.984375 321.757812 C 193.460938 312.125 192.851562 302.539062 191.890625 292.910156 C 192.058594 294.566406 190.402344 297.546875 189.792969 299.203125 C 189.019531 301.804688 188.242188 304.449219 187.445312 307.070312 C 186.589844 309.457031 185.890625 311.894531 185.351562 314.371094 C 184.886719 317.371094 186.335938 320.246094 186.144531 323.328125 C 186.121094 325.941406 184.878906 328.394531 182.792969 329.960938 C 179.542969 332.058594 175.289062 330.757812 171.746094 329.246094 C 169.765625 328.660156 168.042969 327.417969 166.863281 325.722656 C 166.089844 323.796875 165.980469 321.671875 166.546875 319.679688 C 168.1875 308.519531 171.09375 297.578125 175.207031 287.078125 C 178.746094 277.886719 182.226562 267.859375 191.972656 263.746094 C 197.023438 261.648438 203.039062 261.5 208.449219 261.398438 L 227.480469 261.019531 C 233.515625 260.59375 239.585938 261.066406 245.484375 262.425781 C 253.21875 264.523438 258.058594 270.3125 262.441406 276.710938 C 267.890625 284.742188 273.003906 293.007812 277.785156 301.511719 C 281.179688 290.203125 280.824219 287.285156 284.929688 276.230469 C 291.253906 276.738281 297.503906 277.941406 303.5625 279.816406 Z M 303.5625 279.816406 "/>
<path style=" stroke:none;fill-rule:nonzero;fill:url(#linear3);" d="M 222.40625 324.796875 C 220.273438 327.605469 216.9375 329.230469 213.414062 329.183594 C 210.609375 329.285156 207.8125 329.53125 205.03125 329.917969 C 204.265625 330 203.539062 330.296875 202.933594 330.777344 C 202.5 331.3125 202.207031 331.949219 202.074219 332.625 C 199.457031 342.421875 201.84375 352.765625 202.683594 362.855469 C 202.769531 363.273438 202.722656 363.703125 202.558594 364.09375 C 200.984375 363.421875 199.457031 362.730469 197.925781 361.996094 C 197.367188 361.808594 196.878906 361.457031 196.519531 360.988281 C 194.425781 357.714844 195.410156 349.492188 195.242188 345.609375 C 194.992188 339.695312 194.699219 333.757812 194.40625 327.820312 C 194.277344 325.722656 194.175781 323.769531 194.027344 321.734375 C 194.507812 321.609375 195.011719 321.527344 195.496094 321.441406 L 209.011719 319.132812 C 212.347656 318.546875 217.398438 316.574219 220.730469 317.832031 C 224.0625 319.09375 223.957031 322.300781 222.40625 324.796875 Z M 222.40625 324.796875 "/>
<path style=" stroke:none;fill-rule:nonzero;fill:rgb(98.823529%,74.117647%,72.941176%);fill-opacity:1;" d="M 207.882812 261.332031 C 211.066406 258.523438 214.003906 253.339844 213.414062 248.933594 C 212.828125 244.527344 209.621094 239.890625 207.757812 235.714844 C 206.8125 233.617188 205.871094 231.039062 207 228.980469 C 207.679688 228.0625 208.445312 227.214844 209.285156 226.445312 C 211.214844 224.34375 211.738281 221.28125 213.015625 218.703125 C 215.105469 214.625 219.113281 211.886719 223.664062 211.421875 C 228.238281 211.089844 232.632812 213.273438 235.128906 217.128906 C 236.261719 219.152344 237.019531 221.363281 237.371094 223.652344 C 238.558594 229.757812 238.636719 236.027344 237.601562 242.15625 C 237.308594 244.285156 236.597656 246.332031 235.507812 248.179688 C 234.398438 250.039062 232.464844 251.25 230.308594 251.429688 C 229.199219 251.429688 227.917969 251.179688 227.144531 251.957031 C 226.789062 252.335938 226.570312 252.824219 226.515625 253.339844 C 226.226562 254.835938 226.40625 256.382812 227.039062 257.765625 C 227.777344 259.519531 228.3125 261.347656 228.632812 263.222656 C 229.050781 265.214844 229.324219 267.605469 227.792969 268.929688 C 226.835938 269.605469 225.671875 269.929688 224.503906 269.851562 C 217.925781 269.816406 211.757812 266.652344 207.882812 261.332031 Z M 207.882812 261.332031 "/>
<path style=" stroke:none;fill-rule:nonzero;fill:url(#linear4);" d="M 228.800781 296.664062 L 243.136719 250.488281 L 176.859375 266.957031 L 213.144531 317.519531 Z M 228.800781 296.664062 "/>
<path style=" stroke:none;fill-rule:nonzero;fill:rgb(98.823529%,40.784314%,17.647059%);fill-opacity:1;" d="M 242.003906 206.765625 C 241.613281 205.332031 240.84375 204.027344 239.78125 202.988281 C 236.761719 199.949219 232.34375 198.769531 228.214844 199.902344 C 226.285156 200.449219 224.503906 201.5 222.597656 202.148438 C 219.246094 202.902344 215.839844 203.367188 212.410156 203.53125 C 209.011719 204.015625 205.386719 205.402344 203.792969 208.441406 C 202.984375 210.5625 202.488281 212.789062 202.328125 215.050781 C 201.195312 220.820312 197.066406 226.546875 199.183594 232.046875 C 201.300781 237.542969 209.328125 241.757812 212.617188 246.375 C 213.457031 244.402344 212.449219 240.457031 211.589844 238.484375 C 210.113281 238.558594 208.761719 237.644531 208.28125 236.242188 C 207.640625 235.195312 207.289062 234.003906 207.253906 232.78125 C 207.101562 231.542969 207.554688 230.308594 208.46875 229.464844 C 209.664062 228.914062 211.078125 229.335938 211.78125 230.449219 C 212.421875 231.5625 212.769531 232.816406 212.785156 234.101562 C 216.976562 230.09375 212.386719 221.976562 216.160156 217.546875 C 219.050781 218.597656 222.015625 219.433594 225.027344 220.042969 C 228.214844 220.324219 231.425781 219.910156 234.4375 218.828125 C 238.691406 217.191406 243.136719 211.503906 242.003906 206.765625 Z M 242.003906 206.765625 "/>
<path style=" stroke:none;fill-rule:nonzero;fill:rgb(63.921569%,70.588235%,100%);fill-opacity:1;" d="M 175.121094 313.386719 C 173.144531 314.207031 171.4375 315.566406 170.195312 317.308594 C 168.734375 319.789062 168.679688 322.855469 170.050781 325.386719 C 171.460938 327.863281 173.824219 329.660156 176.589844 330.359375 C 180.527344 331.40625 184.699219 330.359375 188.660156 329.351562 L 202.808594 325.699219 C 203.1875 325.640625 203.539062 325.464844 203.816406 325.195312 C 204.066406 324.703125 204.066406 324.117188 203.816406 323.625 C 202.914062 320.183594 202.328125 316.449219 201.089844 313.132812 C 199.980469 310.195312 198.660156 310.21875 195.558594 310.132812 C 188.765625 310.007812 181.367188 310.320312 175.121094 313.386719 Z M 175.121094 313.386719 "/>
<path style=" stroke:none;fill-rule:nonzero;fill:rgb(98.823529%,74.117647%,72.941176%);fill-opacity:1;" d="M 292.476562 281.558594 C 293.074219 281.597656 293.675781 281.457031 294.195312 281.160156 C 294.570312 280.878906 294.871094 280.511719 295.074219 280.089844 C 296.019531 278.457031 296.523438 276.605469 296.542969 274.71875 C 296.476562 273.800781 296.566406 272.878906 296.816406 271.992188 C 297.101562 271.410156 297.445312 270.863281 297.84375 270.355469 C 299.285156 267.597656 299.792969 264.445312 299.289062 261.375 C 299.285156 260.203125 299.058594 259.042969 298.617188 257.957031 C 297.761719 256.304688 296.234375 255.101562 294.425781 254.660156 C 292.636719 254.226562 290.792969 254.046875 288.957031 254.136719 C 287.769531 254.03125 286.574219 254.21875 285.476562 254.683594 C 283.882812 255.480469 283.042969 259.066406 282.730469 260.726562 C 282.238281 263.457031 282.765625 266.269531 284.21875 268.632812 C 284.695312 269.289062 285.101562 269.992188 285.433594 270.734375 C 286.3125 273.125 284.238281 276.542969 285.769531 278.621094 C 287.523438 280.460938 289.9375 281.519531 292.476562 281.558594 Z M 292.476562 281.558594 "/>
<path style=" stroke:none;fill-rule:nonzero;fill:rgb(63.921569%,70.588235%,100%);fill-opacity:1;" d="M 320.25 221.449219 L 320.25 271.425781 C 318.578125 269.535156 316.730469 267.808594 314.734375 266.265625 C 306.308594 259.550781 295.964844 255.683594 285.203125 255.226562 C 281.324219 255.160156 277.820312 252.878906 276.191406 249.355469 C 275.414062 247.601562 275.117188 245.675781 275.332031 243.773438 C 276.121094 238.800781 280.492188 235.203125 285.519531 235.382812 C 291.175781 235.148438 302.285156 233.050781 320.25 221.449219 Z M 320.25 221.449219 "/>
<path style=" stroke:none;fill-rule:nonzero;fill:rgb(63.921569%,70.588235%,100%);fill-opacity:1;" d="M 335.402344 246.375 C 335.402344 232.597656 329.640625 221.429688 322.535156 221.429688 C 315.425781 221.429688 309.664062 232.597656 309.664062 246.375 C 309.664062 260.152344 315.425781 271.320312 322.535156 271.320312 C 329.640625 271.320312 335.402344 260.152344 335.402344 246.375 Z M 335.402344 246.375 "/>
<path style=" stroke:none;fill-rule:nonzero;fill:url(#linear5);" d="M 335.402344 246.375 C 335.402344 232.597656 329.640625 221.429688 322.535156 221.429688 C 315.425781 221.429688 309.664062 232.597656 309.664062 246.375 C 309.664062 260.152344 315.425781 271.320312 322.535156 271.320312 C 329.640625 271.320312 335.402344 260.152344 335.402344 246.375 Z M 335.402344 246.375 "/>
<path style=" stroke:none;fill-rule:nonzero;fill:url(#linear6);" d="M 310.859375 235.863281 L 322.535156 239.515625 L 322.535156 252.101562 L 310.753906 256.425781 C 309.375 249.636719 309.410156 242.636719 310.859375 235.863281 Z M 310.859375 235.863281 "/>
<path style=" stroke:none;fill-rule:nonzero;fill:rgb(63.921569%,70.588235%,100%);fill-opacity:1;" d="M 288.347656 267.230469 L 295.621094 267.230469 L 295.621094 273.628906 C 295.621094 275.644531 293.988281 277.277344 291.972656 277.277344 C 289.960938 277.277344 288.328125 275.644531 288.328125 273.628906 L 288.328125 267.230469 Z M 288.347656 267.230469 "/>
<path style=" stroke:none;fill-rule:nonzero;fill:rgb(63.921569%,70.588235%,100%);fill-opacity:1;" d="M 325.488281 245.808594 C 325.488281 242.332031 324.164062 239.515625 322.535156 239.515625 C 320.902344 239.515625 319.578125 242.332031 319.578125 245.808594 C 319.578125 249.285156 320.902344 252.101562 322.535156 252.101562 C 324.164062 252.101562 325.488281 249.285156 325.488281 245.808594 Z M 325.488281 245.808594 "/>
<path style=" stroke:none;fill-rule:nonzero;fill:url(#linear7);" d="M 314.734375 266.160156 C 306.308594 259.445312 295.964844 255.582031 285.203125 255.125 C 281.324219 255.054688 277.820312 252.773438 276.191406 249.25 C 276.464844 249.542969 279.585938 252.523438 288.367188 251.03125 C 297.589844 249.457031 310.335938 254.136719 310.335938 254.136719 Z M 314.734375 266.160156 "/>
<path style=" stroke:none;fill-rule:nonzero;fill:rgb(27.843137%,24.705882%,27.843137%);fill-opacity:1;" d="M 221.042969 320.496094 L 212.199219 320.496094 C 211.542969 320.527344 210.902344 320.292969 210.417969 319.847656 C 209.9375 319.402344 209.648438 318.785156 209.621094 318.125 C 209.570312 317.847656 209.570312 317.566406 209.621094 317.289062 L 213.8125 298.761719 C 214.253906 296.933594 215.855469 295.621094 217.734375 295.550781 L 226.558594 295.550781 C 227.21875 295.53125 227.863281 295.769531 228.347656 296.222656 C 228.828125 296.675781 229.113281 297.300781 229.136719 297.964844 C 229.175781 298.230469 229.175781 298.5 229.136719 298.761719 L 224.941406 317.289062 C 224.503906 319.109375 222.914062 320.417969 221.042969 320.496094 Z M 221.042969 320.496094 "/>
<path style=" stroke:none;fill-rule:nonzero;fill:rgb(98.823529%,74.117647%,72.941176%);fill-opacity:1;" d="M 209.179688 307.089844 C 209.453125 306.652344 209.761719 306.238281 210.105469 305.851562 C 210.574219 305.371094 211.210938 305.09375 211.886719 305.078125 C 212.03125 305.066406 212.171875 305.109375 212.285156 305.203125 C 212.34375 305.300781 212.386719 305.40625 212.410156 305.519531 C 212.515625 306.125 212.554688 306.734375 212.703125 307.320312 C 212.820312 307.925781 213.128906 308.476562 213.582031 308.894531 C 214.527344 309.671875 216.351562 309.167969 217.441406 309.042969 L 222.050781 308.519531 C 223 308.265625 224.007812 308.460938 224.796875 309.042969 C 225.699219 309.921875 225.300781 311.414062 224.796875 312.589844 C 223.390625 316.070312 221.546875 319.867188 218.027344 321.191406 C 213.835938 322.785156 209.140625 320.203125 204.71875 320.894531 C 202.242188 321.273438 199.496094 322.21875 198.03125 319.46875 C 197.15625 317.945312 197.253906 316.046875 198.28125 314.625 C 199.640625 313.425781 201.210938 312.492188 202.914062 311.875 C 204.34375 311.121094 205.695312 310.238281 206.960938 309.230469 C 207.625 308.714844 208.25 308.148438 208.824219 307.53125 Z M 209.179688 307.089844 "/>
<use xlink:href="#surface32" mask="url(#mask9)"/>
<use xlink:href="#surface35" mask="url(#mask10)"/>
<use xlink:href="#surface38" mask="url(#mask11)"/>
<use xlink:href="#surface41" mask="url(#mask12)"/>
<use xlink:href="#surface44" mask="url(#mask13)"/>
<use xlink:href="#surface47" mask="url(#mask14)"/>
<use xlink:href="#surface50" mask="url(#mask15)"/>
<use xlink:href="#surface53" mask="url(#mask16)"/>
<use xlink:href="#surface56" mask="url(#mask17)"/>
<use xlink:href="#surface59" mask="url(#mask18)"/>
<use xlink:href="#surface62" mask="url(#mask19)"/>
<use xlink:href="#surface65" mask="url(#mask20)"/>
<use xlink:href="#surface68" mask="url(#mask21)"/>
<use xlink:href="#surface71" mask="url(#mask22)"/>
<path style=" stroke:none;fill-rule:nonzero;fill:rgb(63.921569%,70.588235%,100%);fill-opacity:1;" d="M 528.675781 102.679688 C 528.675781 109.355469 523.269531 114.765625 516.601562 114.765625 C 509.933594 114.765625 504.53125 109.355469 504.53125 102.679688 C 504.53125 96.007812 509.933594 90.597656 516.601562 90.597656 C 523.269531 90.597656 528.675781 96.007812 528.675781 102.679688 Z M 528.675781 102.679688 "/>
<path style=" stroke:none;fill-rule:nonzero;fill:rgb(63.921569%,70.588235%,100%);fill-opacity:1;" d="M 113.835938 273.753906 L 83.066406 227.597656 C 82.371094 226.617188 82.097656 225.402344 82.304688 224.21875 C 82.515625 223.035156 83.1875 221.984375 84.175781 221.304688 L 110.167969 204.078125 C 110.648438 203.757812 111.191406 203.539062 111.757812 203.429688 C 113.527344 203.074219 115.339844 203.820312 116.347656 205.316406 L 147.117188 251.472656 C 147.847656 252.582031 148.046875 253.957031 147.664062 255.226562 C 147.371094 256.21875 146.742188 257.070312 145.882812 257.640625 L 119.996094 274.992188 C 117.96875 276.347656 115.226562 275.8125 113.855469 273.796875 Z M 113.835938 273.753906 "/>
<path style=" stroke:none;fill-rule:nonzero;fill:url(#linear8);" d="M 113.835938 273.753906 L 83.066406 227.597656 C 82.371094 226.617188 82.097656 225.402344 82.304688 224.21875 C 82.515625 223.035156 83.1875 221.984375 84.175781 221.304688 L 110.167969 204.078125 C 110.648438 203.757812 111.191406 203.539062 111.757812 203.429688 C 113.527344 203.074219 115.339844 203.820312 116.347656 205.316406 L 147.117188 251.472656 C 147.847656 252.582031 148.046875 253.957031 147.664062 255.226562 C 147.371094 256.21875 146.742188 257.070312 145.882812 257.640625 L 119.996094 274.992188 C 117.96875 276.347656 115.226562 275.8125 113.855469 273.796875 Z M 113.835938 273.753906 "/>
<path style=" stroke:none;fill-rule:nonzero;fill:rgb(63.921569%,70.588235%,100%);fill-opacity:1;" d="M 115.238281 275.894531 L 84.46875 229.738281 C 83.105469 227.6875 83.660156 224.917969 85.707031 223.546875 L 111.589844 206.386719 C 112.074219 206.066406 112.617188 205.847656 113.183594 205.734375 C 114.949219 205.386719 116.75 206.132812 117.753906 207.625 L 148.523438 253.78125 C 149.886719 255.820312 149.34375 258.582031 147.308594 259.949219 L 121.402344 277.214844 C 120.410156 277.863281 119.203125 278.085938 118.042969 277.835938 C 116.886719 277.589844 115.878906 276.890625 115.238281 275.894531 Z M 115.238281 275.894531 "/>
<path style=" stroke:none;fill-rule:nonzero;fill:url(#linear9);" d="M 149.089844 257.453125 L 112.449219 247.359375 L 113.183594 205.566406 C 114.949219 205.21875 116.75 205.964844 117.753906 207.457031 L 148.523438 253.613281 C 149.300781 254.734375 149.511719 256.152344 149.089844 257.453125 Z M 149.089844 257.453125 "/>
<path style=" stroke:none;fill-rule:nonzero;fill:url(#linear10);" d="M 112.703125 232.382812 L 86.335938 232.445312 L 115.238281 275.894531 L 125.570312 250.96875 L 112.472656 247.359375 Z M 112.703125 232.382812 "/>
</g>
</svg>
